# xmcd
#
# Track frame offsets:
#	150
#	15395
#	34457
#	55822
#	75341
#	97821
#	111399
#	130943
#	149234
#	174951
#
# Disc length: 2495 seconds
#
# Revision: 0
# Processed by: cddbd v1.5.2PL0 Copyright (c) Steve Scherf et al.
# Submitted via: audiograbber 1.83.01
#
DISCID=7f09bd0a
DTITLE=Klaus Lage Band - Heisse Spuren
DYEAR=1985
DGENRE=Rock
TTITLE0=Starke Schläge
TTITLE1=Out
TTITLE2=Stille Wasser
TTITLE3=Vermisst
TTITLE4=Faust Auf Faust (Schimanski)
TTITLE5=Istanbul
TTITLE6=Zuviel Allein
TTITLE7=Eifersucht
TTITLE8=Weihnachtszeit
TTITLE9=Taxi
EXTD=
EXTT0=
EXTT1=
EXTT2=
EXTT3=
EXTT4=
EXTT5=
EXTT6=
EXTT7=
EXTT8=
EXTT9=
PLAYORDER=
